<svg id="Layer_1" enable-background="new 0 0 64 64" height="512" viewBox="0 0 64 64" width="512" xmlns="http://www.w3.org/2000/svg">
    <g>
        <g>
            <g>
                <path d="m49.9 59.9c-.3 0-.7-.1-1-.2l-18.9-10.3c-.7-.4-1.1-1-1-1.8 0-.7.4-1.4 1.1-1.8l18.9-9.5c.6-.3 1.4-.3 2 .1s1 1 1 1.7v19.8c0 .7-.4 1.4-1 1.7-.4.2-.7.3-1.1.3zm-14.6-12.2 12.6 6.8v-13.2z" />
            </g>
        </g>
    </g>
    <g>
        <g>
            <g>
                <path d="m50 18h-45c-1.1 0-2-.9-2-2s.9-2 2-2h45c1.1 0 2 .9 2 2s-.9 2-2 2z" />
            </g>
        </g>
    </g>
    <g>
        <g>
            <g>
                <path d="m50 34h-45c-1.1 0-2-.9-2-2s.9-2 2-2h45c1.1 0 2 .9 2 2s-.9 2-2 2z" />
            </g>
        </g>
    </g>
    <g>
        <g>
            <g>
                <path d="m25 50h-20c-1.1 0-2-.9-2-2s.9-2 2-2h20c1.1 0 2 .9 2 2s-.9 2-2 2z" />
            </g>
        </g>
    </g>
</svg>